<svg width="51" height="52" viewBox="0 0 51 52" fill="none" xmlns="http://www.w3.org/2000/svg">
<g filter="url(#filter0_dd_272_383)">
<rect x="5.11011" y="1.63702" width="40.2202" height="41.2741" rx="6" fill="white"/>
</g>
<path d="M21.4496 13.2454C20.7554 13.2454 20.1927 13.8228 20.1927 14.5352C20.1927 15.2475 20.7554 15.825 21.4496 15.825H28.9909C29.685 15.825 30.2477 15.2475 30.2477 14.5352C30.2477 13.8228 29.685 13.2454 28.9909 13.2454H21.4496Z" fill="white"/>
<path d="M17.6789 18.4046C17.6789 17.6923 18.2417 17.1148 18.9358 17.1148H31.5046C32.1988 17.1148 32.7615 17.6923 32.7615 18.4046C32.7615 19.117 32.1988 19.6944 31.5046 19.6944H18.9358C18.2417 19.6944 17.6789 19.117 17.6789 18.4046Z" fill="white"/>
<path d="M15.1652 23.5639C15.1652 22.1392 16.2906 20.9843 17.6789 20.9843H32.7615C34.1498 20.9843 35.2753 22.1392 35.2753 23.5639V28.7231C35.2753 30.1479 34.1498 31.3028 32.7615 31.3028H17.6789C16.2906 31.3028 15.1652 30.1479 15.1652 28.7231V23.5639Z" fill="white"/>
<path fill-rule="evenodd" clip-rule="evenodd" d="M30.5619 13.2454C30.7952 13.2454 31.0159 13.3518 31.1652 13.5356L35.0929 18.3724C35.3247 18.657 35.3365 19.0657 35.1236 19.3647L26.4825 31.4568C26.334 31.664 26.0984 31.7865 25.8486 31.7865C25.5988 31.7865 25.3631 31.664 25.2146 31.4568L16.5735 19.3647C16.3607 19.0665 16.3732 18.657 16.6042 18.3724L20.5319 13.5356C20.6812 13.3518 20.9019 13.2454 21.1352 13.2454H30.5619ZM20.3497 19.6945H31.3474V18.0822H20.3497V19.6945Z" fill="#3377EE"/>
<defs>
<filter id="filter0_dd_272_383" x="0.110107" y="0.637024" width="50.2202" height="51.274" filterUnits="userSpaceOnUse" color-interpolation-filters="sRGB">
<feFlood flood-opacity="0" result="BackgroundImageFix"/>
<feColorMatrix in="SourceAlpha" type="matrix" values="0 0 0 0 0 0 0 0 0 0 0 0 0 0 0 0 0 0 127 0" result="hardAlpha"/>
<feMorphology radius="1" operator="erode" in="SourceAlpha" result="effect1_dropShadow_272_383"/>
<feOffset dy="2"/>
<feGaussianBlur stdDeviation="2"/>
<feColorMatrix type="matrix" values="0 0 0 0 0 0 0 0 0 0 0 0 0 0 0 0 0 0 0.07 0"/>
<feBlend mode="normal" in2="BackgroundImageFix" result="effect1_dropShadow_272_383"/>
<feColorMatrix in="SourceAlpha" type="matrix" values="0 0 0 0 0 0 0 0 0 0 0 0 0 0 0 0 0 0 127 0" result="hardAlpha"/>
<feMorphology radius="1" operator="erode" in="SourceAlpha" result="effect2_dropShadow_272_383"/>
<feOffset dy="4"/>
<feGaussianBlur stdDeviation="3"/>
<feColorMatrix type="matrix" values="0 0 0 0 0 0 0 0 0 0 0 0 0 0 0 0 0 0 0.12 0"/>
<feBlend mode="normal" in2="effect1_dropShadow_272_383" result="effect2_dropShadow_272_383"/>
<feBlend mode="normal" in="SourceGraphic" in2="effect2_dropShadow_272_383" result="shape"/>
</filter>
</defs>
</svg>
